<svg xmlns="http://www.w3.org/2000/svg" width="23" height="24" fill="none" viewBox="0 0 23 24"><path fill="#FC0015" d="M17.613 4.281h.018a1.36 1.36 0 0 1 1.359 1.382 1.387 1.387 0 0 1-1.39 1.372 1.366 1.366 0 0 1-1.36-1.381 1.38 1.38 0 0 1 1.373-1.373"/><path fill="#FC0015" d="M22.78 6.047c.17 1.805.28 10.325-.25 12.323-.707 2.614-2.417 4.162-5.057 4.581-.988.158-3.654.254-6.321.254s-5.451-.1-6.37-.337C2.183 22.195.63 20.503.22 17.872-.087 15.939-.122 6.956.438 5.006 1.168 2.466 2.859.976 5.43.552 6.593.36 8.874.294 11.174.294c2.138 0 4.297.057 5.595.131 1.574.083 3.012.59 4.184 1.714 1.114 1.066 1.683 2.4 1.827 3.912zm-2.203 11.449c.328-2.016.328-9.368.14-11.257-.206-2.015-1.438-3.34-3.432-3.654-.988-.149-3.366-.215-5.73-.215-2.366 0-4.552.062-5.553.17-1.997.233-3.344 1.465-3.663 3.45-.328 2.107-.323 9.984-.079 11.567.254 1.648 1.185 2.78 2.829 3.24.887.248 3.554.336 6.163.336 2.405 0 4.765-.075 5.653-.175 2.015-.223 3.353-1.465 3.672-3.471"/><path fill="#FC0015" d="M11.507 5.885a5.823 5.823 0 0 1 5.827 5.88c-.027 3.239-2.676 5.87-5.924 5.87a5.82 5.82 0 0 1-5.827-5.88c.026-3.247 2.676-5.879 5.924-5.87m-.083 9.67a3.84 3.84 0 0 0 3.833-3.764 3.76 3.76 0 0 0-3.733-3.839h-.035a3.84 3.84 0 0 0-3.834 3.764 3.765 3.765 0 0 0 3.734 3.838z"/></svg>